HIERARCHY
ROOT hip
{
  OFFSET 0 0 0
  CHANNELS 6 Xposition Yposition Zposition Zrotation Yrotation Xrotation
  JOINT abdomen
  {
    OFFSET 0 20.6881 -0.73152
    CHANNELS 3 Zrotation Xrotation Yrotation
    JOINT chest
    {
      OFFSET 0 11.7043 -0.48768
      CHANNELS 3 Zrotation Xrotation Yrotation
      JOINT neck
      {
        OFFSET 0 22.1894 -2.19456
        CHANNELS 3 Zrotation Xrotation Yrotation
        JOINT head
        {
          OFFSET -0.24384 7.07133 1.2192
          CHANNELS 3 Zrotation Xrotation Yrotation
          JOINT leftEye
          {
            OFFSET 4.14528 8.04674 8.04672
            CHANNELS 3 Zrotation Xrotation Yrotation
            End Site
            {
              OFFSET 1 0 0
            }
          }
          JOINT rightEye
          {
            OFFSET -3.6576 8.04674 8.04672
            CHANNELS 3 Zrotation Xrotation Yrotation
            End Site
            {
              OFFSET 1 0 0
            }
          }
        }
      }
      JOINT rCollar
      {
        OFFSET -2.68224 19.2634 -4.8768
        CHANNELS 3 Zrotation Xrotation Yrotation
        JOINT rShldr
        {
          OFFSET -8.77824 -1.95073 1.46304
          CHANNELS 3 Zrotation Xrotation Yrotation
          JOINT rForeArm
          {
            OFFSET -28.1742 -1.7115 0.48768
            CHANNELS 3 Zrotation Xrotation Yrotation
            JOINT rHand
            {
              OFFSET -22.5879 0.773209 7.07136
              CHANNELS 3 Zrotation Xrotation Yrotation
              JOINT rThumb1
              {
                OFFSET -1.2192 -0.487915 3.41376
                CHANNELS 3 Zrotation Xrotation Yrotation
                JOINT rThumb2
                {
                  OFFSET -3.37035 -0.52449 3.41376
                  CHANNELS 3 Zrotation Xrotation Yrotation
                  End Site
                  {
                    OFFSET -1.78271 -1.18214 1.43049
                  }
                }
              }
              JOINT rIndex1
              {
                OFFSET -7.75947 0.938293 5.60832
                CHANNELS 3 Zrotation Xrotation Yrotation
                JOINT rIndex2
                {
                  OFFSET -2.54057 -0.884171 1.56538
                  CHANNELS 3 Zrotation Xrotation Yrotation
                  End Site
                  {
                    OFFSET -1.62519 -0.234802 1.16502
                  }
                }
              }
              JOINT rMid1
              {
                OFFSET -8.24714 1.18213 3.41376
                CHANNELS 3 Zrotation Xrotation Yrotation
                JOINT rMid2
                {
                  OFFSET -3.10165 -0.590103 1.0647
                  CHANNELS 3 Zrotation Xrotation Yrotation
                  End Site
                  {
                    OFFSET -2.48547 -0.328903 0.83742
                  }
                }
              }
              JOINT rRing1
              {
                OFFSET -8.82822 0.546677 1.51678
                CHANNELS 3 Zrotation Xrotation Yrotation
                JOINT rRing2
                {
                  OFFSET -2.60934 -0.819778 -0.0198488
                  CHANNELS 3 Zrotation Xrotation Yrotation
                  End Site
                  {
                    OFFSET -2.33842 -0.294052 0.168128
                  }
                }
              }
              JOINT rPinky1
              {
                OFFSET -8.27202 -0.0477905 -0.4584
                CHANNELS 3 Zrotation Xrotation Yrotation
                JOINT rPinky2
                {
                  OFFSET -1.82734 -0.647385 -0.700984
                  CHANNELS 3 Zrotation Xrotation Yrotation
                  End Site
                  {
                    OFFSET -1.69225 -0.51767 -0.607171
                  }
                }
              }
            }
          }
        }
      }
      JOINT lCollar
      {
        OFFSET 2.68224 19.2634 -4.8768
        CHANNELS 3 Zrotation Xrotation Yrotation
        JOINT lShldr
        {
          OFFSET 8.77824 -1.95073 1.46304
          CHANNELS 3 Zrotation Xrotation Yrotation
          JOINT lForeArm
          {
            OFFSET 28.1742 -1.7115 0.48768
            CHANNELS 3 Zrotation Xrotation Yrotation
            JOINT lHand
            {
              OFFSET 22.5879 0.773209 7.07136
              CHANNELS 3 Zrotation Xrotation Yrotation
              JOINT lThumb1
              {
                OFFSET 1.2192 -0.487915 3.41376
                CHANNELS 3 Zrotation Xrotation Yrotation
                JOINT lThumb2
                {
                  OFFSET 3.37035 -0.52449 3.41376
                  CHANNELS 3 Zrotation Xrotation Yrotation
                  End Site
                  {
                    OFFSET 1.78271 -1.18214 1.43049
                  }
                }
              }
              JOINT lIndex1
              {
                OFFSET 7.75947 0.938293 5.60832
                CHANNELS 3 Zrotation Xrotation Yrotation
                JOINT lIndex2
                {
                  OFFSET 2.54057 -0.884171 1.56538
                  CHANNELS 3 Zrotation Xrotation Yrotation
                  End Site
                  {
                    OFFSET 1.62519 -0.234802 1.16502
                  }
                }
              }
              JOINT lMid1
              {
                OFFSET 8.24714 1.18213 3.41376
                CHANNELS 3 Zrotation Xrotation Yrotation
                JOINT lMid2
                {
                  OFFSET 3.10165 -0.590103 1.0647
                  CHANNELS 3 Zrotation Xrotation Yrotation
                  End Site
                  {
                    OFFSET 2.48547 -0.328903 0.83742
                  }
                }
              }
              JOINT lRing1
              {
                OFFSET 8.82822 0.546677 1.51678
                CHANNELS 3 Zrotation Xrotation Yrotation
                JOINT lRing2
                {
                  OFFSET 2.60934 -0.819778 -0.0198488
                  CHANNELS 3 Zrotation Xrotation Yrotation
                  End Site
                  {
                    OFFSET 2.33842 -0.294052 0.168128
                  }
                }
              }
              JOINT lPinky1
              {
                OFFSET 8.27202 -0.0477905 -0.4584
                CHANNELS 3 Zrotation Xrotation Yrotation
                JOINT lPinky2
                {
                  OFFSET 1.82734 -0.647385 -0.700984
                  CHANNELS 3 Zrotation Xrotation Yrotation
                  End Site
                  {
                    OFFSET 1.69225 -0.51767 -0.607171
                  }
                }
              }
            }
          }
        }
      }
    }
  }
  JOINT rButtock
  {
    OFFSET -8.77824 4.35084 1.2192
    CHANNELS 3 Zrotation Xrotation Yrotation
    JOINT rThigh
    {
      OFFSET 0 -1.70687 -2.19456
      CHANNELS 3 Zrotation Xrotation Yrotation
      JOINT rShin
      {
        OFFSET 0 -36.8199 0.73152
        CHANNELS 3 Zrotation Xrotation Yrotation
        JOINT rFoot
        {
          OFFSET 0.73152 -45.1104 -5.12064
          CHANNELS 3 Zrotation Xrotation Yrotation
          End Site
          {
            OFFSET -1.1221 -3.69964 12.103
          }
        }
      }
    }
  }
  JOINT lButtock
  {
    OFFSET 8.77824 4.35084 1.2192
    CHANNELS 3 Zrotation Xrotation Yrotation
    JOINT lThigh
    {
      OFFSET 0 -1.70687 -2.19456
      CHANNELS 3 Zrotation Xrotation Yrotation
      JOINT lShin
      {
        OFFSET 0 -36.8199 0.73152
        CHANNELS 3 Zrotation Xrotation Yrotation
        JOINT lFoot
        {
          OFFSET -0.73152 -45.1104 -5.12064
          CHANNELS 3 Zrotation Xrotation Yrotation
          End Site
          {
            OFFSET 1.1221 -3.69964 12.103
          }
        }
      }
    }
  }
}
MOTION
Frames:	9
Frame Time:	0.00833333
-6.06349 83.7656 36.8279 -4.4795 -1.2959 4.0729 5.1247 3.49648 4.0207 -2.69346 -5.43003 1.05302 -5.34381 7.32783 -8.64688 7.77542 -21.5085 -14.9552 -0.0 0.0 0.0 -0.0 0.0 0.0 -3.82372e-14 -1.20573e-13 -1.15509e-14 20.9505 0.474889 36.0314 -28.369 -37.5774 79.668 -0.266575 14.5589 2.09161 -2.10923e-10 7.28258e-10 7.9813e-10 -3.58522e-10 1.26888e-09 1.38408e-09 -2.10932e-10 7.28253e-10 7.98108e-10 7.73091 5.47488 0.417314 -2.10925e-10 7.28267e-10 7.98131e-10 2.90554 0.965183 0.102902 -2.10919e-10 7.28264e-10 7.98129e-10 10.2786 0.731801 0.0259123 -2.10928e-10 7.28265e-10 7.98134e-10 2.22167 -0.733487 -0.20892 -3.8151e-14 -1.20574e-13 -1.16786e-14 -87.0827 34.1452 14.999 19.8943 -12.8793 -38.4243 0.0167184 3.68579 -0.518729 4.15978e-10 1.14694e-10 1.60591e-10 7.18721e-10 1.9634e-10 2.73465e-10 4.15974e-10 1.14689e-10 1.60593e-10 -7.73091 5.47488 -0.417314 4.15979e-10 1.1469e-10 1.60592e-10 -2.90554 0.965183 -0.102902 4.15973e-10 1.14689e-10 1.60589e-10 -10.2786 0.731801 -0.0259123 4.15986e-10 1.14691e-10 1.60583e-10 -2.22167 -0.733487 0.20892 -2.03217e-16 0.0 -3.88251e-19 -21.691 -2.9285 -0.0106149 0.000199466 -0.571972 0.00216668 0.574662 3.49354 -0.0259958 2.03217e-16 0.0 3.88251e-19 11.484 -11.5327 -6.03764 0.0637897 23.1776 -0.583117 4.73539 -18.3169 14.6632
-6.04628 83.7628 36.8367 -4.4882 -1.1159 4.1149 5.02829 3.46089 3.98168 -2.6042 -5.43876 1.04504 -5.52424 7.40957 -8.67925 8.01863 -21.6308 -14.9467 -0.0 0.0 0.0 -0.0 0.0 0.0 3.15272e-14 -6.90641e-14 -8.76206e-15 22.1698 -1.38103 33.6065 -28.3917 -37.2026 79.0346 -0.242647 13.9112 1.99464 -3.37291e-10 2.26569e-10 6.00643e-10 -5.76748e-10 3.999e-10 1.04304e-09 -3.37296e-10 2.26567e-10 6.00627e-10 7.73091 5.47488 0.417314 -3.37291e-10 2.26582e-10 6.00651e-10 2.90554 0.965183 0.102902 -3.37286e-10 2.26574e-10 6.00641e-10 10.2786 0.731801 0.0259123 -3.37292e-10 2.26575e-10 6.00643e-10 2.22167 -0.733487 -0.20892 3.16232e-14 -6.90656e-14 -8.92667e-15 -87.1088 34.2438 14.9591 19.8978 -12.8836 -38.4335 0.0162197 3.62418 -0.510037 -7.16466e-11 -2.95427e-10 -1.72518e-10 -1.23856e-10 -5.11142e-10 -3.00455e-10 -7.16494e-11 -2.95431e-10 -1.72518e-10 -7.73091 5.47488 -0.417314 -7.16445e-11 -2.95428e-10 -1.72518e-10 -2.90554 0.965183 -0.102902 -7.16507e-11 -2.9543e-10 -1.7252e-10 -10.2786 0.731801 -0.0259123 -7.16377e-11 -2.95428e-10 -1.72524e-10 -2.22167 -0.733487 0.20892 -2.03217e-16 0.0 -3.88251e-19 -21.6899 -2.92965 -0.0105976 0.000210748 -0.563225 0.00225378 0.576623 3.48596 -0.0263618 2.03217e-16 0.0 3.88251e-19 11.5308 -11.6564 -5.94794 0.0646394 23.1981 -0.580242 4.59055 -18.213 14.352
-6.03227 83.7586 36.8482 -4.5228 -0.8636 4.1703 4.93135 3.43844 3.94834 -2.52362 -5.45319 1.03827 -5.69069 7.50197 -8.72244 8.25408 -21.7889 -14.9625 -0.0 0.0 0.0 -0.0 0.0 0.0 8.94091e-14 -1.02566e-14 -2.54887e-15 23.385 -3.45389 31.2294 -28.41 -36.7778 78.3247 -0.218763 13.2154 1.8912 -3.69185e-10 -3.0979e-10 3.00887e-10 -6.32822e-10 -5.30663e-10 5.24064e-10 -3.69186e-10 -3.0979e-10 3.00877e-10 7.73091 5.47488 0.417314 -3.69183e-10 -3.09774e-10 3.009e-10 2.90554 0.965183 0.102902 -3.69178e-10 -3.09787e-10 3.00885e-10 10.2786 0.731801 0.0259123 -3.69183e-10 -3.09786e-10 3.00883e-10 2.22167 -0.733487 -0.20892 8.95073e-14 -1.02577e-14 -2.74261e-15 -87.1213 34.3569 14.9224 19.9128 -12.9022 -38.4696 0.0153491 3.52418 -0.495928 -4.96233e-10 -6.12004e-10 -4.59076e-10 -8.57418e-10 -1.05695e-09 -7.9386e-10 -4.96235e-10 -6.12006e-10 -4.59077e-10 -7.73091 5.47488 -0.417314 -4.96231e-10 -6.12002e-10 -4.59076e-10 -2.90554 0.965183 -0.102902 -4.96237e-10 -6.12004e-10 -4.59076e-10 -10.2786 0.731801 -0.0259123 -4.96224e-10 -6.12003e-10 -4.59081e-10 -2.22167 -0.733487 0.20892 -2.03217e-16 0.0 -3.88251e-19 -21.6892 -2.93056 -0.0105701 0.000224265 -0.554672 0.00236111 0.578881 3.47834 -0.026771 2.03217e-16 0.0 3.88251e-19 11.5831 -11.7844 -5.87351 0.065566 23.2192 -0.577351 4.4454 -18.1114 14.0361
-5.99303 83.7544 36.8639 -4.4837 -0.5204 4.2033 4.86338 3.44951 3.89968 -2.48455 -5.4728 1.02561 -5.8154 7.56954 -8.7684 8.4461 -21.9416 -14.9966 -0.0 0.0 0.0 -0.0 0.0 0.0 1.06859e-13 2.78306e-14 3.27995e-15 24.5428 -5.50308 29.1975 -28.4251 -36.3359 77.5733 -0.196994 12.545 1.7921 -2.98861e-10 -6.66916e-10 2.69457e-11 -5.12775e-10 -1.151e-09 4.92549e-11 -2.98859e-10 -6.66915e-10 2.69393e-11 7.73091 5.47488 0.417314 -2.98857e-10 -6.669e-10 2.69616e-11 2.90554 0.965183 0.102902 -2.98853e-10 -6.66915e-10 2.69433e-11 10.2786 0.731801 0.0259123 -2.98856e-10 -6.66913e-10 2.69393e-11 2.22167 -0.733487 -0.20892 1.0694e-13 2.78299e-14 3.08116e-15 -87.1263 34.458 14.9243 19.9486 -12.9473 -38.5553 0.0139986 3.37598 -0.475019 -6.54693e-10 -6.94694e-10 -5.59196e-10 -1.13108e-09 -1.1992e-09 -9.65796e-10 -6.54696e-10 -6.94695e-10 -5.59196e-10 -7.73091 5.47488 -0.417314 -6.54692e-10 -6.94692e-10 -5.59196e-10 -2.90554 0.965183 -0.102902 -6.54697e-10 -6.94693e-10 -5.59195e-10 -10.2786 0.731801 -0.0259123 -6.54684e-10 -6.94691e-10 -5.59199e-10 -2.22167 -0.733487 0.20892 -2.03217e-16 0.0 -3.88251e-19 -21.689 -2.93094 -0.0105336 0.000238218 -0.547617 0.00247446 0.58112 3.47169 -0.0271663 2.03217e-16 0.0 3.88251e-19 11.627 -11.9019 -5.84961 0.0662896 23.2389 -0.574949 4.32372 -18.0307 13.7671
-5.94218 83.752 36.8775 -4.4014 -0.1746 4.2095 4.83048 3.5142 3.83369 -2.50455 -5.49721 1.00597 -5.90232 7.60691 -8.83578 8.60046 -22.1072 -15.0832 -0.0 0.0 0.0 -0.0 0.0 0.0 5.62372e-14 3.27098e-14 9.6166e-15 25.8969 -7.64453 27.4801 -28.4404 -35.8223 76.6703 -0.175846 11.8761 1.6936 -3.82109e-11 -7.41308e-10 -2.34912e-10 -6.49792e-11 -1.28225e-09 -4.05661e-10 -3.82078e-11 -7.41308e-10 -2.34919e-10 7.73091 5.47488 0.417314 -3.82078e-11 -7.41295e-10 -2.34898e-10 2.90554 0.965183 0.102902 -3.82026e-11 -7.41307e-10 -2.34915e-10 10.2786 0.731801 0.0259123 -3.8206e-11 -7.41306e-10 -2.34919e-10 2.22167 -0.733487 -0.20892 5.62658e-14 3.27093e-14 9.46052e-15 -87.1011 34.5886 14.9488 20.0191 -13.0365 -38.7246 0.012112 3.15768 -0.44423 -3.68693e-10 -3.91038e-10 -3.40217e-10 -6.36677e-10 -6.74874e-10 -5.87393e-10 -3.687e-10 -3.91039e-10 -3.40215e-10 -7.73091 5.47488 -0.417314 -3.68695e-10 -3.91038e-10 -3.40218e-10 -2.90554 0.965183 -0.102902 -3.687e-10 -3.91039e-10 -3.40217e-10 -10.2786 0.731801 -0.0259123 -3.68686e-10 -3.91035e-10 -3.40221e-10 -2.22167 -0.733487 0.20892 -2.03217e-16 0.0 -3.88251e-19 -21.6895 -2.931 -0.0104815 0.000255334 -0.541194 0.00261651 0.583836 3.46538 -0.0276256 2.03217e-16 0.0 3.88251e-19 11.6653 -12.0187 -5.90558 0.0668266 23.2633 -0.573056 4.21755 -17.9654 13.5294
-5.92711 83.751 36.8853 -4.4365 0.1227 4.218 4.81776 3.61677 3.76035 -2.56318 -5.52677 0.982878 -5.96245 7.63163 -8.92192 8.73032 -22.2975 -15.2139 -0.0 0.0 0.0 -0.0 0.0 0.0 -4.05555e-14 2.09965e-14 1.78565e-14 27.4064 -9.92322 25.9531 -28.4424 -35.228 75.653 -0.155197 11.184 1.59216 3.79953e-10 -6.62534e-10 -5.37035e-10 6.53814e-10 -1.14927e-09 -9.31311e-10 3.79956e-10 -6.62536e-10 -5.37044e-10 7.73091 5.47488 0.417314 3.79955e-10 -6.62526e-10 -5.37027e-10 2.90554 0.965183 0.102902 3.79961e-10 -6.62534e-10 -5.37038e-10 10.2786 0.731801 0.0259123 3.79957e-10 -6.62532e-10 -5.37042e-10 2.22167 -0.733487 -0.20892 -4.06042e-14 2.09963e-14 1.77757e-14 -87.0507 34.7465 14.9859 20.1148 -13.1577 -38.9565 0.0100214 2.88093 -0.405224 2.1206e-10 1.8577e-10 9.14663e-11 3.67131e-10 3.20859e-10 1.57968e-10 2.12048e-10 1.85769e-10 9.14721e-11 -7.73091 5.47488 -0.417314 2.12055e-10 1.85766e-10 9.14642e-11 -2.90554 0.965183 -0.102902 2.12049e-10 1.85766e-10 9.14667e-11 -10.2786 0.731801 -0.0259123 2.12064e-10 1.85772e-10 9.1462e-11 -2.22167 -0.733487 0.20892 -2.03217e-16 0.0 -3.88251e-19 -21.6905 -2.93081 -0.0104156 0.000275496 -0.535111 0.00278602 0.587004 3.45917 -0.0281484 2.03217e-16 0.0 3.88251e-19 11.7028 -12.1381 -6.01611 0.0672963 23.291 -0.571443 4.11853 -17.9095 13.305
-5.9304 83.7504 36.8877 -4.5244 0.364 4.2314 4.82306 3.72382 3.6767 -2.63633 -5.56208 0.956105 -5.9789 7.64267 -8.98679 8.8122 -22.4627 -15.3185 -0.0 0.0 0.0 -0.0 0.0 0.0 -1.37753e-13 8.3265e-15 2.49455e-14 28.6819 -11.9419 24.7478 -28.4246 -34.6711 74.7527 -0.137612 10.5409 1.49843 7.82e-10 -5.66296e-10 -8.09266e-10 1.34501e-09 -9.85876e-10 -1.4051e-09 7.82003e-10 -5.66301e-10 -8.09279e-10 7.73091 5.47488 0.417314 7.82e-10 -5.66294e-10 -8.09264e-10 2.90554 0.965183 0.102902 7.82008e-10 -5.66297e-10 -8.09269e-10 10.2786 0.731801 0.0259123 7.82003e-10 -5.66295e-10 -8.09272e-10 2.22167 -0.733487 -0.20892 -1.37876e-13 8.3267e-15 2.49308e-14 -87.0234 34.8402 15.0792 20.21 -13.2788 -39.1904 0.008117 2.5863 -0.363724 7.98598e-10 7.77592e-10 5.17168e-10 1.38094e-09 1.34256e-09 8.92865e-10 7.98581e-10 7.77591e-10 5.17178e-10 -7.73091 5.47488 -0.417314 7.98589e-10 7.77583e-10 5.17165e-10 -2.90554 0.965183 -0.102902 7.98583e-10 7.77584e-10 5.17168e-10 -10.2786 0.731801 -0.0259123 7.986e-10 7.77593e-10 5.17163e-10 -2.22167 -0.733487 0.20892 -2.03217e-16 0.0 -3.88251e-19 -21.6917 -2.92982 -0.0103492 0.000292681 -0.531536 0.00293288 0.589525 3.45466 -0.0285594 2.03217e-16 0.0 3.88251e-19 11.7281 -12.2353 -6.13432 0.0675747 23.3099 -0.570234 4.04898 -17.8805 13.142
-5.92847 83.7513 36.8897 -4.5663 0.4935 4.2351 4.8441 3.80194 3.57973 -2.69991 -5.60373 0.92542 -5.93477 7.63903 -8.99034 8.82381 -22.5533 -15.326 -0.0 0.0 0.0 -0.0 0.0 0.0 -1.89589e-13 1.03356e-14 2.78299e-14 29.3799 -13.286 23.9829 -28.4 -34.2891 74.1738 -0.124722 10.0191 1.42277 9.94299e-10 -5.88299e-10 -9.81446e-10 1.71e-09 -1.02585e-09 -1.70443e-09 9.94302e-10 -5.88306e-10 -9.81462e-10 7.73091 5.47488 0.417314 9.94298e-10 -5.88302e-10 -9.81449e-10 2.90554 0.965183 0.102902 9.94307e-10 -5.883e-10 -9.8145e-10 10.2786 0.731801 0.0259123 9.94301e-10 -5.88297e-10 -9.81452e-10 2.22167 -0.733487 -0.20892 -1.89754e-13 1.03364e-14 2.78299e-14 -87.0667 34.7777 15.2721 20.2805 -13.3687 -39.3653 0.00657361 2.31434 -0.325438 1.10195e-09 1.12629e-09 7.18201e-10 1.90536e-09 1.9448e-09 1.23987e-09 1.10193e-09 1.12629e-09 7.18214e-10 -7.73091 5.47488 -0.417314 1.10194e-09 1.12628e-09 7.18198e-10 -2.90554 0.965183 -0.102902 1.10193e-09 1.12628e-09 7.18201e-10 -10.2786 0.731801 -0.0259123 1.10195e-09 1.12629e-09 7.18195e-10 -2.22167 -0.733487 0.20892 -2.03217e-16 0.0 -3.88251e-19 -21.6928 -2.92749 -0.0102955 0.000300898 -0.532638 0.00300696 0.5903 3.45346 -0.0286836 2.03217e-16 0.0 3.88251e-19 11.7303 -12.2856 -6.21319 0.0675394 23.3073 -0.569556 4.03097 -17.8961 13.0883
-5.94606 83.7543 36.8865 -4.6357 0.4506 4.2455 4.89807 3.84038 3.43456 -2.75426 -5.65833 0.880604 -5.78341 7.62103 -8.89521 8.69744 -22.5686 -15.1816 -0.0 0.0 0.0 -0.0 0.0 0.0 -1.71497e-13 3.55653e-14 2.4916e-14 29.3487 -13.6533 23.7785 -28.3901 -34.1871 74.0344 -0.115994 9.64601 1.36884 9.19724e-10 -8.22746e-10 -1.00497e-09 1.58189e-09 -1.43162e-09 -1.74449e-09 9.19727e-10 -8.22753e-10 -1.00499e-09 7.73091 5.47488 0.417314 9.19723e-10 -8.22751e-10 -1.00498e-09 2.90554 0.965183 0.102902 9.19732e-10 -8.22746e-10 -1.00498e-09 10.2786 0.731801 0.0259123 9.19724e-10 -8.22743e-10 -1.00498e-09 2.22167 -0.733487 -0.20892 -1.71665e-13 3.55672e-14 2.48423e-14 -87.253 34.4333 15.6684 20.3323 -13.435 -39.4948 0.0049467 1.99584 -0.280617 9.69366e-10 1.1073e-09 5.62244e-10 1.67642e-09 1.91274e-09 9.70454e-10 9.69346e-10 1.10731e-09 5.62258e-10 -7.73091 5.47488 -0.417314 9.69356e-10 1.1073e-09 5.62242e-10 -2.90554 0.965183 -0.102902 9.6935e-10 1.1073e-09 5.62244e-10 -10.2786 0.731801 -0.0259123 9.69366e-10 1.1073e-09 5.62236e-10 -2.22167 -0.733487 0.20892 -2.03217e-16 0.0 -3.88251e-19 -21.6942 -2.92299 -0.0102504 0.000297981 -0.540534 0.00299208 0.588842 3.45681 -0.0284376 2.03217e-16 0.0 3.88251e-19 11.7037 -12.2764 -6.25012 0.0670976 23.2758 -0.569576 4.08388 -17.9805 13.1817
